<?xml version="1.0" encoding="UTF-8"?>
<svg id="Layer_2" data-name="Layer 2" xmlns="http://www.w3.org/2000/svg" viewBox="0 0 841.91 267.8">
  <defs>
    <style>
      .cls-1 {
        font-family: FuturaBT-Heavy, 'Futura Hv BT';
        font-size: 190.73px;
        font-weight: 800;
      }

      .cls-2 {
        fill: #fff;
      }

      .cls-3 {
        fill: #111a28;
      }

      .cls-4 {
        opacity: .35;
      }

      .cls-4, .cls-5, .cls-6, .cls-7 {
        fill: none;
      }

      .cls-8 {
        fill: #f68f1e;
      }

      .cls-5 {
        opacity: .5;
      }

      .cls-9 {
        fill: #d3d3d3;
      }

      .cls-10 {
        fill: #261c1c;
      }

      .cls-11 {
        fill: #371a45;
      }

      .cls-7 {
        opacity: .25;
      }

      .cls-12 {
        fill: #39c7ff;
      }
    </style>
  </defs>
  <g id="Layer_1-2" data-name="Layer 1">
    <g>
      <text class="cls-1" transform="translate(.95 222.82)"><tspan class="cls-8" x="0" y="0">A</tspan><tspan class="cls-2" x="135.97" y="0">R</tspan><tspan class="cls-8" x="251.54" y="0">C</tspan><tspan class="cls-2" x="388.44" y="0">A</tspan><tspan class="cls-8" x="524.41" y="0">D</tspan><tspan class="cls-2" x="668.01" y="0">E</tspan><tspan class="cls-8" x="776.88" y="0">!</tspan></text>
      <g>
        <g>
          <path class="cls-2" d="m592.4,59.68c-.59,1.43-1.59,3.79-2.31,5.04-.51.89-1.5,1.49-2.37,2.01-.98.59-1.82,1.09-1.7,1.81.02.09.05.18.09.26.11.02.19.11.19.22,0,0,0,.01,0,.02.75.74,2.76.96,3.6.98.07,0,.13.03.18.09.04.05.06.13.04.19l-.88,3.56c2.49,1.21,4.11,3.12,4.58,3.74,4.99-3.93,7.99-7.9,8.97-11.84-4.18-6.37-9.52-6.17-10.38-6.09Z"/>
          <path class="cls-2" d="m558.86,73.43c-.83-1.13-.92-3.12-.92-3.8h-6.3l.16,5.13c1.78-.93,4.23-1.73,7.07-1.33Z"/>
          <path class="cls-2" d="m550.48,65.04c-.87,1.83-.2,3.65,0,4.13h7.45v-4.13h-7.46Z"/>
          <path class="cls-2" d="m554.04,89.41c-3.93,0-6-.66-6.79-.99.16,2.43.47,4.42.57,5.04.89-.07,1.78-.11,2.66-.13.96-.02,1.92-.02,2.88.02-.96.04-1.91.11-2.86.21-.95.1-1.9.22-2.84.37h0s0,0,0,0c0,0,0,0,0,0-1.21.06-2.9,1.41-3.08,2.84-.14,1.15.74,2.05,2.54,2.59,5.08,1.54,13.61.31,15.78-1.71,1.72-1.61,1.39-7.4,1.23-9.34-4.23.82-7.54,1.09-10.08,1.09Z"/>
          <path class="cls-2" d="m593.59,78.07s0,0,0,0c-.03-.04-3.07-4.24-7.8-4.73-1.67-.17-3.35.14-5.02.91-.04.02-.07.03-.11.05-1.37.64-2.73,1.6-4.09,2.86-.09.09-.24.08-.32-.01-.09-.09-.08-.24.01-.32.92-.85,1.84-1.57,2.77-2.15-2.3.33-6.1.42-9.5.42-2.62,0-4.99-.05-6.26-.09.6.36,1.22.77,1.84,1.27.1.08.11.22.04.32-.08.1-.22.11-.32.04-.85-.68-1.71-1.23-2.58-1.67-.01,0-.03-.01-.04-.02-.87-.44-1.76-.75-2.65-.95,0,0,0,0,0,0-.04,0-.07-.01-.1-.03-1.84-.39-3.72-.26-5.61.38-2.82.96-4.63,2.76-4.67,2.79-1.95,2.08-2.14,6.87-1.93,10.75.75.35,5.43,2.16,16.85-.05-.01-.11-.02-.17-.02-.18l-.77-5.21,1.2,5.01c8.21,3.63,14.04.49,14.83.03l.45-5.04v5.18s0,0,0,0c0,0,0,.08,0,.21,1.33.24,9.66,1.58,15.69-1.36-.05-6.01-1.82-8.4-1.84-8.43,0,0,0,0,0,0Z"/>
          <path class="cls-2" d="m594.57,92.38c-.22-.03-.45-.04-.68-.06-.46-.02-.92-.02-1.38,0-.46.02-.92.07-1.38.12l-.69.09-.69.11.68-.17.68-.15c.46-.09.91-.17,1.38-.23.46-.06.93-.11,1.4-.12.24,0,.47,0,.71,0,.16,0,.31.02.47.04l.02-.25c.23-1.78.33-3.37.34-4.77-3.05,1.43-6.63,1.82-9.63,1.82s-5.28-.37-6.06-.51c0,1,.05,2.96.26,4.85l.03.24c.31,2.75.69,6.18,6.01,6.2,5.1.02,11.44.04,12.09-3.1.61-2.97-2.76-3.97-2.93-4.01-.19-.05-.42-.09-.64-.12Z"/>
          <path class="cls-2" d="m548.98,76.69c.33-.3,1.16-1,2.36-1.68l-.17-5.37h-.84c-.09,0-.16-.05-.2-.12-.05-.1-1.22-2.43,0-4.8.04-.08.12-.12.2-.12h1.15v-2.25l-3.56-1.94c-.09,1.93-.51,10.98-.48,12.98.02,1.75,1.13,2.94,1.53,3.31Z"/>
          <path class="cls-2" d="m585.86,69.25h-2.9c-.01.86-.03,1.47-.03,1.61.02.18.12,1.31-.89,2.41,1.26-.38,2.53-.51,3.79-.38,1.09.11,2.08.4,2.97.79l.79-3.21c-.81-.05-2.94-.26-3.74-1.22Z"/>
          <rect class="cls-2" x="561.57" y="70.49" width="4.66" height=".88"/>
          <path class="cls-2" d="m546.25,41.5c-3.71-2.28-7.07-4.51-7.35-4.95-.17-.27-.33-.69-.5-1.18-.38-1.05-.9-2.48-1.87-2.93-.2-.09-.35-.11-.45-.05-.31.18-.37,1.03-.41,1.58-.04.5-.06.8-.17.98.03.52.03,1.04-.05,1.57-.02.14-.06.28-.1.42-.05.14-.11.26-.17.38-.12.24-.23.48-.34.73-.2.49-.36,1-.41,1.53-.05.53,0,1.07.18,1.58-.21-.5-.3-1.04-.29-1.59,0-.55.14-1.09.31-1.6.09-.26.19-.51.29-.76.05-.12.09-.25.13-.37.03-.12.05-.24.06-.37.04-.44.01-.9-.04-1.35-.25-.08-.6-.36-1.1-.77-.97-.79-2.39-1.95-3.59-1.95-.14,0-.27.02-.4.05-.77.2-1.64,1.09-2.27,2.35-1.2,2.39-1.28,5.34-.23,7.87,1.05,2.52,6.53,7.08,11.54,10.86,6.69-4.39,7.19-11.07,7.23-12.03Z"/>
          <path class="cls-2" d="m585.6,68.8c-.02-.06-.03-.12-.04-.18-.17-1.02.84-1.63,1.92-2.27.78-.47,1.66-1,2.13-1.73h-.35s-.02,0-.03,0c-.02,0-.03,0-.05,0h-6.17c0,1.41-.02,2.97-.04,4.18h2.64Z"/>
          <circle class="cls-12" cx="576.07" cy="64.82" r="2.06"/>
          <path class="cls-2" d="m582.48,70.87c0-.08.16-8.18,0-9.68-.04-.35-.16-.67-.31-.95-.47-.86-1.39-1.38-2.37-1.39-2.49-.04-8.34-.11-12.74-.17-.12,0-.25,0-.37,0-1.95-.02-4.15-.04-4.77-.04-2.18,0-3.37,2.2-3.54,2.53v8.25h0s-.08,3.3,1.26,4.17c.88.19,1.79.5,2.71.96.51.02,6.37.22,10.99.15,0-.03,0-.05,0-.08,3.1-.07,5.93-.26,7.03-.69.07-.04.15-.07.22-.1,0,0,.01,0,.02-.01,2.09-1.2,1.86-2.83,1.86-2.9,0-.01,0-.03,0-.04Zm-6.41-3.53c-1.39,0-2.52-1.13-2.52-2.52s1.13-2.52,2.52-2.52,2.52,1.13,2.52,2.52-1.13,2.52-2.52,2.52Z"/>
          <path class="cls-2" d="m551.51,61.82c.04-.64.1-1.27.19-1.91.1-.75.23-1.5.4-2.24.08-.37.17-.74.26-1.11.11-.36.2-.73.32-1.09.22-.73.49-1.43.78-2.13-.25.71-.49,1.43-.67,2.16-.1.36-.17.73-.26,1.1-.07.37-.15.74-.21,1.11-.13.74-.22,1.49-.28,2.24-.06.75-.1,1.5-.09,2.24h0s0,0,0,0v2.38h5.99v-3.48s0-.07.02-.09c.05-.12,1.33-2.84,3.97-2.84.68,0,2.4.02,4.53.04h0c5.71.07,14.42.19,14.55.19.04,0,.09.01.12.04.07.04,1.63,1.08,1.81,2.7.05.5.07,1.66.08,3.02h5.98c0-.87-.07-1.75-.17-2.62-.11-.95-.28-1.89-.49-2.82-.22-.93-.52-1.84-.87-2.73-.37-.88-.83-1.72-1.38-2.51.58.76,1.08,1.59,1.49,2.47.39.88.73,1.79.99,2.71.26.93.46,1.87.61,2.83.14.88.24,1.76.28,2.66h.44c1.04-1.96,2.57-5.8,2.58-5.84.05-.12.18-.17.3-.13.12.05.17.18.13.3-.02.04-.12.31-.29.72,1.4-.06,6.34.17,10.33,5.95.34-1.73.29-3.45-.14-5.17-2.06-8.06-16.75-14.84-18.21-15.49-7.32,5.04-14.82,5.35-19.84,4.72-5.45-.69-9.23-2.61-9.26-2.63-1.77-.7-5.37-2.75-8.78-4.82-.12,1.6-.98,7.83-7.28,12.05,4.36,3.27,8.26,5.9,8.43,6.01l3.67,2Z"/>
          <path class="cls-6" d="m547.83,97.87c2.65.57,11.5.68,13.28-2.28.77-1.29,1.06-4.04,1.05-6.92-3.31.55-5.99.74-8.12.74-3.93,0-6-.66-6.79-.99.16,2.43.47,4.42.57,5.04.89-.07,1.78-.11,2.66-.13.96-.02,1.92-.02,2.88.02-.96.04-1.91.11-2.86.21-.95.1-1.9.22-2.84.37h0s0,0,0,0c0,0,0,0,0,0-.86.04-1.97.74-2.6,1.66,0,.07.2,1.72,2.79,2.28Z"/>
          <path class="cls-6" d="m550.48,69.18h.72v-.06s-.35-1.2-.2-1.62c.15-.42,6.93-.17,6.93-.17v-2.29h-7.46c-.87,1.83-.2,3.65,0,4.13Z"/>
          <path class="cls-6" d="m555.64,70.85c-1.3-.13-3.3-.14-3.98-.13l.13,4.05c1.78-.93,4.23-1.73,7.07-1.33-.29-.39-.49-.89-.63-1.41l-.19-.33s-.81-.69-2.4-.85Z"/>
          <path class="cls-6" d="m579.74,58.85c-2.59-.04-8.65-.12-13.05-.17l.21,7.8c5.33,1.91,5.45,2.03,5.5,2.08.07.07.17.17.34,4.26,2.69-.05,5.17-.15,6.56-.32,2.02-.25,2.86-1.92,3.21-3.44.04-2.5.08-6.81-.03-7.86-.02-.21-.07-.41-.14-.59-.4-1.06-1.45-1.73-2.59-1.75Zm-3.68,8.49c-1.39,0-2.52-1.13-2.52-2.52s1.13-2.52,2.52-2.52,2.52,1.13,2.52,2.52-1.13,2.52-2.52,2.52Z"/>
          <path class="cls-6" d="m566.45,66.65l-.21-7.97c-2.03-.02-3.65-.04-4.31-.04-2.18,0-3.37,2.2-3.54,2.53v7.06l.33-.45s.82,4.25,2.85,4.71c1.24.28,6.19.39,10.72.33-.08-1.75-.17-3.54-.24-3.95-.52-.23-3.55-1.34-5.44-2.01-.09-.03-.15-.11-.15-.21Zm.24,3.61v1.33c0,.13-.1.23-.23.23h-5.12c-.13,0-.23-.1-.23-.23v-1.33c0-.13.1-.23.23-.23h5.12c.13,0,.23.1.23.23Z"/>
          <rect class="cls-6" x="561.57" y="70.49" width="4.66" height=".88"/>
          <path class="cls-6" d="m541.47,52.2c5.17,3.88,10.27,7.37,10.27,7.37v.03c.09-.65.21-1.29.35-1.93.08-.37.17-.74.26-1.11.11-.36.2-.73.32-1.09.16-.54.36-1.08.57-1.61.59-1.65.98-1.26.98-1.26,0,0-1.18,3.77-.76,7.21.41,3.44,1.79,4.77,1.79,4.77h2.69v-3.48s0-.07.02-.09c.05-.12,1.33-2.84,3.97-2.84.68,0,2.4.02,4.53.04h0c5.71.07,14.42.19,14.55.19.04,0,.09.01.12.04.07.04,1.63,1.08,1.81,2.7.05.5.07,1.66.08,3.02h2.95c.38-.42.91-1.27.97-2.85.09-2.47-1.62-8.85-1.62-8.85,3.89,2.03,5.74,6.78,6.21,8.13.53-1.24.93-2.25.94-2.27.05-.12.18-.17.3-.13.12.05.17.18.13.3-.02.04-.12.31-.29.72,1.26-.06,5.39.13,9.11,4.38.51-2.76-.09-5.48-.6-7.1-4.47-6.44-15.29-11.43-16.53-11.98-.96.66-1.93,1.24-2.89,1.75-1.18,1.36-5.33,5.35-13.43,5.35-9.78,0-14.66-5.88-14.66-5.88h0c-1.9-.97-4.45-2.45-6.89-3.94-.1,1.41-.78,6.39-5.22,10.44Z"/>
          <path class="cls-6" d="m593.59,78.07s0,0,0,0c-.03-.04-3.07-4.24-7.8-4.73-1.67-.17-3.35.14-5.02.91-.04.02-.07.03-.11.05-1.37.64-2.73,1.6-4.09,2.86-.09.09-.24.08-.32-.01-.09-.09-.08-.24.01-.32.17-.16.35-.31.52-.46-1.55.41-6.13,1.35-11.61.03.02.07.02.15-.03.22-.08.1-.22.11-.32.04-.54-.43-1.08-.81-1.63-1.14-.34-.19-.71-.4-1.09-.6-.84-.41-1.69-.71-2.54-.9,0,0,0,0,0,0-.04,0-.07-.01-.1-.03-1.84-.39-3.72-.26-5.61.38-2.82.96-4.63,2.76-4.67,2.79-1.95,2.08-2.14,6.87-1.93,10.75.71.33,4.9,1.95,14.93.29-.05-3.57-.52-7.24-1.04-8.5.46-1.54,4.45,3.38,5.12,5.35.67,1.97,8.55,3.27,11.04.34,0,0,1.01-5.27,3-5.99.37,0,.53,4.31.97,8.68,2.98.38,9.34.79,14.19-1.58-.05-6.01-1.82-8.4-1.84-8.43,0,0,0,0,0,0Z"/>
          <path class="cls-6" d="m591.11,92.33c.46-.09.91-.17,1.38-.23.46-.06.93-.11,1.4-.12.24,0,.47,0,.71,0,.16,0,.31.02.47.04l.02-.25c.23-1.78.33-3.37.34-4.77-3.05,1.43-6.63,1.82-9.63,1.82-1.8,0-3.38-.14-4.52-.28.41,3.89,1.05,7.72,2.25,8.49,2.6,1.68,13.04.86,14.66-1.55-.24-2.18-2.84-2.95-2.98-2.99-.19-.05-.42-.09-.64-.12-.22-.03-.45-.04-.68-.06-.46-.02-.92-.02-1.38,0-.46.02-.92.07-1.38.12l-.69.09-.69.11.68-.17.68-.15Z"/>
          <path class="cls-6" d="m531.46,43.65c1.57,1.97,5.59,5.22,9.64,8.28,4.72-4.26,5.12-9.58,5.15-10.43-3.71-2.28-7.07-4.51-7.35-4.95-.17-.27-.33-.69-.5-1.18-.38-1.05-.9-2.48-1.87-2.93-.2-.09-.35-.11-.45-.05-.31.18-.37,1.03-.41,1.58-.04.5-.06.8-.17.98.03.52.03,1.04-.05,1.57-.02.14-.06.28-.1.42-.05.14-.11.26-.17.38-.12.24-.23.48-.34.73-.2.49-.36,1-.41,1.53-.05.53,0,1.07.18,1.58-.21-.5-.3-1.04-.29-1.59,0-.55.14-1.09.31-1.6.09-.26.19-.51.29-.76.05-.12.09-.25.13-.37.03-.12.05-.24.06-.37.04-.44.01-.9-.04-1.35-.25-.08-.6-.36-1.1-.77-.97-.79-2.39-1.95-3.59-1.95-.14,0-.27.02-.4.05-.73.18-1.54.99-2.15,2.12.1,1.27.64,5.31,3.64,9.08Z"/>
          <circle class="cls-6" cx="576.07" cy="64.82" r="2.06"/>
          <path class="cls-6" d="m601.58,64.15c-3.94-4.71-8.4-4.54-9.18-4.47-.59,1.43-1.59,3.79-2.31,5.04-.51.89-1.5,1.49-2.37,2.01-.98.59-1.82,1.09-1.7,1.81.02.09.05.18.09.26.11.02.19.11.19.22,0,0,0,.01,0,.02.75.74,2.76.96,3.6.98.07,0,.13.03.18.09.04.05.06.13.04.19l-.88,3.56c.89.43,1.67.96,2.33,1.48,1.32-1.01,9.03-7.08,10.03-11.21Z"/>
          <path class="cls-6" d="m582.99,66.98h0s3.5,0,3.5,0c.3-.22.64-.42.99-.63.78-.47,1.66-1,2.13-1.73h-.35s-.02,0-.03,0c-.02,0-.03,0-.05,0h-6.17c0,.77,0,1.58-.02,2.36Z"/>
          <path class="cls-6" d="m548.98,76.69c.12-.11.3-.27.54-.46-.29-.44-1.1-1.76-1.17-2.57-.08-.9.44-11.13.52-12.75l-.94-.51c-.09,1.93-.51,10.98-.48,12.98.02,1.75,1.13,2.94,1.53,3.31Z"/>
          <g class="cls-7">
            <path class="cls-11" d="m541.47,52.2c-.61.56-1.29,1.1-2.06,1.61,4.36,3.27,8.26,5.9,8.43,6.01l3.67,2c.04-.64.1-1.27.19-1.91.01-.11.03-.21.05-.32v-.03s-5.1-3.48-10.27-7.37Z"/>
          </g>
          <g class="cls-7">
            <path class="cls-11" d="m531.46,43.65c-3-3.77-3.54-7.8-3.64-9.08-.04.07-.08.15-.12.22-1.2,2.39-1.28,5.34-.23,7.87,1.05,2.52,6.53,7.08,11.54,10.86.77-.51,1.46-1.04,2.07-1.6-4.05-3.05-8.07-6.31-9.64-8.28Z"/>
          </g>
          <g class="cls-7">
            <path class="cls-11" d="m548.81,73.77c.07.81.43,2.01.72,2.45.43-.34,1.05-.79,1.82-1.22l-.17-5.37h-.84c-.09,0-.16-.05-.2-.12-.05-.1-1.22-2.43,0-4.8.04-.08.12-.12.2-.12h1.15v-2.25l-2.62-1.42c-.08,1.62-.15,11.96-.07,12.87Z"/>
          </g>
          <g class="cls-7">
            <path class="cls-11" d="m576.76,76.36c.75-.65,1.5-1.21,2.25-1.68-2.3.33-6.1.42-9.5.42-2.62,0-4.99-.05-6.26-.09.6.36,1.22.77,1.84,1.27.03.03.06.07.07.1,5.48,1.32,10.06.38,11.61-.03Z"/>
          </g>
          <g class="cls-7">
            <path class="cls-10" d="m562.22,74.97s-.03-.01-.04-.02c-.04-.02-.07-.03-.11-.05.38.21.76.42,1.09.6-.31-.19-.63-.37-.95-.53Z"/>
          </g>
          <g class="cls-7">
            <path class="cls-11" d="m585.83,72.89c1.09.11,2.08.4,2.97.79l.79-3.21c-.81-.05-2.94-.26-3.74-1.22h-2.9c-.01.86-.03,1.47-.03,1.61.02.18.12,1.31-.89,2.41,1.26-.38,2.53-.51,3.79-.38Z"/>
          </g>
          <g class="cls-7">
            <path class="cls-11" d="m551.63,69.63l.03,1.08c.68,0,2.68,0,3.98.13,1.59.16,2.4.85,2.4.85l.19.33c-.26-.95-.3-1.95-.3-2.39h-6.3Z"/>
          </g>
          <g class="cls-7">
            <path class="cls-11" d="m551,67.5c-.15.42.19,1.62.19,1.62v.06h6.74v-1.85s-6.77-.25-6.93.17Z"/>
          </g>
          <g class="cls-7">
            <path class="cls-10" d="m582.99,66.98c0,.65-.02,1.27-.02,1.82h2.64c-.02-.06-.03-.12-.04-.18-.11-.69.31-1.19.93-1.64h-3.5Z"/>
          </g>
          <g class="cls-7">
            <path class="cls-11" d="m582.48,70.87s.02-.76.03-1.82c-.35,1.51-1.19,3.19-3.21,3.44-1.39.17-4.33.28-7.02.33-4.52.06-9.48-.05-10.72-.33-2.02-.46-2.85-4.71-2.85-4.71l-.33.45v1.18s0,0,0,0c0,0,0,0,0,0,0,.03-.08,3.29,1.26,4.16.88.19,1.78.5,2.71.96.51.02,5.38.17,10,.09,0-.21-.02-.44-.03-.67,0,.21.02.43.03.67,3.31-.07,6.86-.26,8.03-.71.07-.04.15-.07.22-.1,0,0,.02,0,.02-.01,2.09-1.2,1.86-2.83,1.85-2.9,0-.01,0-.03,0-.04Z"/>
          </g>
          <g class="cls-7">
            <path class="cls-11" d="m580.27,79.41c-1.99.72-3,5.99-3,5.99-2.49,2.93-10.37,1.63-11.04-.34-.67-1.97-4.66-6.9-5.12-5.35.52,1.26.99,4.93,1.04,8.5.62-.1,1.26-.22,1.92-.34-.01-.11-.02-.17-.02-.18l-.77-5.21,1.2,5.01c8.21,3.63,14.04.49,14.83.03l.45-5.04v5.18s0,0,0,0c0,0,0,.08,0,.21.26.05.78.13,1.49.22-.44-4.37-.6-8.68-.97-8.68Z"/>
          </g>
          <g class="cls-7">
            <path class="cls-11" d="m547.83,97.87c-2.59-.56-2.78-2.21-2.79-2.28-.25.37-.43.77-.48,1.19-.14,1.15.74,2.05,2.54,2.59,5.08,1.54,13.61.31,15.78-1.71,1.72-1.61,1.39-7.4,1.23-9.34-.68.13-1.33.25-1.96.35,0,2.88-.27,5.63-1.05,6.92-1.77,2.96-10.63,2.85-13.28,2.28Z"/>
          </g>
          <g class="cls-7">
            <path class="cls-11" d="m583.53,97.04c-1.2-.77-1.84-4.6-2.25-8.49-.71-.09-1.24-.17-1.54-.23,0,1,.05,2.96.26,4.85l.03.24c.31,2.75.69,6.18,6.01,6.2,5.1.02,11.44.04,12.09-3.1.08-.37.09-.71.06-1.02-1.62,2.42-12.06,3.23-14.66,1.55Z"/>
          </g>
          <g class="cls-7">
            <path class="cls-10" d="m568.35,52.62c9.53,0,14.4-5.16,15.79-6.92-7.48,4.34-14.8,4.56-19.91,3.85-6.41-.89-10.84-3.38-10.89-3.4-.58-.25-1.34-.65-2.21-1.14h0s5.74,7.62,17.22,7.62Z"/>
          </g>
          <g class="cls-7">
            <path class="cls-10" d="m600.54,54.98s0,0,0,0c.13.16.26.31.38.47-.23-.31-.38-.48-.38-.48Z"/>
          </g>
          <g class="cls-7">
            <path class="cls-11" d="m602.78,65.77c-.39-.6-.79-1.14-1.2-1.62-1,4.13-8.71,10.2-10.03,11.21,1.17.93,1.95,1.86,2.26,2.26,4.99-3.93,7.99-7.9,8.97-11.84Z"/>
          </g>
          <g class="cls-7">
            <path class="cls-11" d="m601.7,63.59c.41.47.82.99,1.22,1.57.34-1.73.29-3.45-.14-5.17-.31-1.2-.9-2.38-1.68-3.51.51,1.62,1.11,4.35.6,7.1Z"/>
          </g>
          <g class="cls-7">
            <path class="cls-11" d="m585.31,52.46s1.71,6.38,1.62,8.85c-.06,1.58-.59,2.43-.97,2.85h3.03c0-.87-.07-1.75-.17-2.62-.11-.95-.28-1.89-.49-2.82-.22-.93-.52-1.84-.87-2.73-.37-.88-.83-1.72-1.38-2.51.58.76,1.08,1.59,1.49,2.47.39.88.73,1.79.99,2.71.26.93.46,1.87.61,2.83.14.88.24,1.76.28,2.66h.44c.51-.96,1.14-2.37,1.64-3.57-.46-1.35-2.32-6.1-6.21-8.13Z"/>
          </g>
          <g class="cls-7">
            <path class="cls-11" d="m554.22,52.61s-.39-.39-.98,1.26c.07-.18.14-.35.21-.53-.25.71-.49,1.43-.67,2.16-.1.36-.17.73-.26,1.1-.07.37-.15.74-.21,1.11-.13.74-.22,1.49-.28,2.24-.06.75-.1,1.5-.09,2.24h0s0,0,0,0v2.38h3.3s-1.38-1.33-1.79-4.77c-.41-3.44.76-7.21.76-7.21Z"/>
          </g>
          <g>
            <path class="cls-11" d="m552.55,101.02c-2.04,0-4.04-.22-5.73-.73-3.07-.93-3.34-2.67-3.22-3.63.2-1.63,1.74-3.07,3.18-3.53-.41-2.68-1.6-12.07,1.2-16.07-.6-.66-1.49-1.93-1.51-3.67-.03-2.04.38-10.93.48-12.99-2.62-1.78-18.39-12.6-20.37-17.36-1.16-2.79-1.07-6.03.25-8.67.77-1.54,1.82-2.58,2.89-2.85,1.73-.44,3.6,1.08,4.84,2.09.05.04.1.08.15.12.06-.81.17-1.76.86-2.17.27-.16.72-.29,1.35,0,1.33.62,1.93,2.27,2.37,3.47.14.38.28.78.4.97.85.9,12.34,8.19,16.14,9.7.02,0,.04.02.07.03.09.05,5.46,2.74,12.71,2.74,4.69,0,10.17-1.13,15.51-4.84.21-.14.48-.17.71-.07.68.29,16.6,7.29,18.87,16.19,1.57,6.15-1.45,12.33-8.97,18.36.78,1.46,2.36,5.58,1.33,13.67,1.54.63,3.58,2.22,3.02,4.93-.8,3.92-7.59,3.89-13.03,3.87-6.18-.02-6.67-4.43-6.97-7.06l-.03-.24c-.19-1.66-.25-3.34-.27-4.43-2.12.96-7.08,2.49-13.67-.06.18,2.48.33,7.79-1.58,9.57-1.64,1.53-6.4,2.67-10.99,2.67Zm-22.17-68.12c-.1,0-.19.01-.28.03-.48.12-1.27.74-1.94,2.08-1.13,2.26-1.21,5.05-.21,7.45,1.62,3.89,15.11,13.55,20.18,16.94.21.14.34.39.32.64,0,.11-.53,11.09-.5,13.31.02,1.87,1.47,3.04,1.49,3.05.16.13.26.32.28.52.01.2-.06.41-.2.56-2.78,2.96-1.79,12.61-1.17,16.08.04.21-.02.42-.15.58-.13.16-.33.27-.54.28-.99.05-2.46,1.25-2.6,2.4-.13,1.1,1.12,1.72,2.19,2.05,5.18,1.57,13.44.13,15.29-1.6,1.39-1.29,1.35-6.55,1.01-9.56-.03-.26.08-.52.3-.68.21-.16.49-.19.73-.08,8.56,3.83,14.3.21,14.54.06.23-.15.52-.16.75-.03.24.13.38.38.38.65,0,.03-.04,2.81.26,5.47l.03.24c.3,2.69.64,5.73,5.51,5.75,4.65.02,11.03.04,11.59-2.7.51-2.51-2.45-3.39-2.57-3.43-.34-.1-.56-.42-.53-.77l.04-.49c1.26-9.66-1.37-13.31-1.4-13.35-.24-.32-.18-.78.13-1.02,7.4-5.77,10.41-11.57,8.97-17.24-1.91-7.5-15.27-13.94-17.67-15.04-7.38,4.97-14.9,5.28-19.95,4.64-5.33-.67-8.99-2.46-9.4-2.66-3.39-1.36-16.05-9.08-16.79-10.24-.2-.32-.37-.76-.55-1.28-.35-.96-.83-2.28-1.6-2.64-.09.26-.13.82-.15,1.11-.04.63-.08,1.08-.37,1.38-.59.62-1.28.06-2.15-.65-.86-.7-2.26-1.83-3.27-1.83Z"/>
            <path class="cls-11" d="m536,34.8c-.01.75-.05,1.51-.32,2.24-.72,1.27-1.49,2.61-1.07,4.12-.25-.48-.39-1.03-.42-1.6-.08-.96.28-1.92.52-2.83.06-.57-.05-1.19-.17-1.77-.2-1.08,1.41-1.26,1.46-.17h0Z"/>
            <path class="cls-11" d="m539.01,54.39c-.19,0-.38-.09-.49-.27-.18-.27-.1-.64.18-.81,7.13-4.59,7.2-11.86,7.2-11.93,0-.32.26-.59.58-.59h0c.32,0,.58.26.59.58,0,.32-.05,7.98-7.74,12.93-.1.06-.21.09-.32.09Z"/>
            <path class="cls-11" d="m548.46,76.48c4.5-4.63,12.22-5.29,16.67-.24.11.12.09.31-.03.42-.1.08-.23.09-.33.04-1.3-.68-2.56-1.3-3.86-1.73-3.93-1.43-8.31-.08-11.4,2.55-.7.65-1.68-.33-1.04-1.03h0Z"/>
            <path class="cls-11" d="m593.17,78.36c-1.92-2.37-4.77-4.32-7.87-4.5-3.23-.19-6.09,1.55-8.59,3.47-.2.16-.49.12-.65-.08-.14-.18-.13-.43.02-.59,1.15-1.27,2.52-2.38,4.09-3.18,5.21-2.71,10.85-.49,14.18,4.03.54.8-.61,1.62-1.2.85h0Z"/>
            <path class="cls-11" d="m558.16,70.14h-7.83c-.27,0-.53-.15-.65-.4-.06-.11-1.33-2.66,0-5.26.13-.24.38-.4.65-.4h7.83c.4,0,.73.33.73.73v4.59c0,.4-.33.73-.73.73Zm-7.33-1.47h6.6v-3.12h-6.62c-.48,1.27-.19,2.51.02,3.12Z"/>
            <path class="cls-11" d="m569.59,75.62c-3.25,0-6.2-.09-7.31-.13-.4-.01-.72-.35-.71-.76.01-.4.35-.73.76-.71,6.17.21,16.52.21,18.04-.66,1.76-1.01,1.61-2.33,1.61-2.39,0-.04,0-.09,0-.12.06-2.81.13-8.44,0-9.61-.02-.16-.06-.31-.12-.47-.32-.84-1.17-1.41-2.13-1.42-4.67-.07-15.76-.22-17.8-.22-.52,0-1.03.15-1.49.44-.95.6-1.54,1.71-1.54,2.91v2.32c0,.4-.33.73-.73.73s-.73-.33-.73-.73v-2.32c0-1.7.85-3.29,2.22-4.15.71-.44,1.47-.67,2.27-.67,2.05,0,13.15.15,17.82.22,1.56.02,2.96.97,3.48,2.37.1.27.17.55.2.83.17,1.51.02,9.01,0,9.75.04.44.08,2.41-2.33,3.8-1.38.79-6.78.98-11.51.98Z"/>
            <path class="cls-11" d="m559.53,74.51c-.13,0-.27-.04-.39-.12-1.77-1.13-1.72-4.62-1.71-5.01.01-.4.36-.73.75-.71.4.01.72.35.71.75h0c-.03.98.19,3.19,1.03,3.73.34.22.44.67.22,1.01-.14.22-.38.34-.62.34Z"/>
            <path class="cls-11" d="m571.37,75.63c-.39,0-.72-.31-.73-.71l-.22-5.84c-.76-.36-2.67-1.19-4.03-1.78-.26-.11-.43-.37-.44-.65l-.22-8.19c-.01-.4.31-.74.71-.75.4,0,.74.31.75.71l.21,7.73c4.03,1.74,4.14,1.85,4.25,1.96.13.13.21.31.21.49l.24,6.27c.02.4-.3.74-.7.76,0,0-.02,0-.03,0Zm-.64-6.39h0,0Z"/>
            <path class="cls-11" d="m576.07,67.84c-1.67,0-3.02-1.35-3.02-3.02s1.35-3.02,3.02-3.02,3.02,1.35,3.02,3.02-1.35,3.02-3.02,3.02Zm0-4.57c-.86,0-1.55.7-1.55,1.55s.7,1.55,1.55,1.55,1.55-.7,1.55-1.55-.7-1.55-1.55-1.55Z"/>
            <path class="cls-11" d="m551.57,75.85c-.39,0-.72-.31-.73-.71l-.18-5.71c-.01-.4.31-.74.71-.76.4-.02.74.31.76.71l.18,5.71c.01.4-.31.74-.71.76,0,0-.02,0-.02,0Z"/>
            <path class="cls-11" d="m551.72,65.55c-.4,0-.73-.33-.73-.73v-2.18l-3.62-1.97c-.36-.19-.49-.64-.29-.99.19-.36.64-.49.99-.29l4,2.18c.24.13.38.38.38.64v2.62c0,.4-.33.73-.73.73Z"/>
            <path class="cls-11" d="m550.98,62.2c.31-3.08,1.12-6.08,2.47-8.86-.65,2.16-.98,4.4-1.04,6.65-.02.74-.01,1.51.04,2.21.04,1.05-1.51,1.05-1.47,0h0Z"/>
            <path class="cls-11" d="m588.25,73.83l.93-3.75.69.91c-1.52-.13-3.7-.29-4.59-1.76-.29-.52-.26-1.23.06-1.71.72-1.07,1.93-1.44,2.84-2.1.55-.36,1.02-.76,1.31-1.33,1.07-1.87,1.8-3.92,2.84-5.82.2-.36.77-.14.67.27-.63,2.22-1.56,4.31-2.6,6.38-.7,1.28-2.23,1.97-3.32,2.74-2.11,1.41,1.88,1.87,2.82,1.87.41,0,.73.35.72.76,0,.05,0,.11-.02.15l-.93,3.75c-.25.93-1.63.6-1.42-.35h0Z"/>
            <path class="cls-11" d="m590.01,65.12h-7.23c-.4,0-.73-.33-.73-.73s.33-.73.73-.73h7.23c.4,0,.73.33.73.73s-.33.73-.73.73Z"/>
            <path class="cls-11" d="m586.07,69.76h-3.33c-.4,0-.73-.33-.73-.73s.33-.73.73-.73h3.33c.4,0,.73.33.73.73s-.33.73-.73.73Z"/>
            <path class="cls-11" d="m588.49,64.39c.1-2.79-.22-5.68-1.15-8.34-.33-.89-.75-1.75-1.27-2.56,1.25,1.48,2.11,3.27,2.72,5.12.6,1.89,1,3.78,1.17,5.78.03.4-.27.76-.68.79-.44.04-.83-.34-.79-.79h0Z"/>
            <path class="cls-11" d="m603.03,66.32c-.19,0-.38-.09-.49-.27-4.39-6.77-9.8-5.84-10.03-5.8-.32.06-.62-.15-.69-.47-.06-.32.15-.62.46-.69.26-.05,6.4-1.15,11.24,6.31.18.27.1.63-.17.81-.1.06-.21.09-.32.09Z"/>
            <path class="cls-11" d="m563.56,87.78l-.28-5.32,1.72,5.04c.31,1.07-1.32,1.39-1.44.28h0Z"/>
            <path class="cls-11" d="m578.79,87.61l.97-5.14.5,5.21c.05,1.12-1.61,1.04-1.46-.07h0Z"/>
            <path class="cls-11" d="m547.54,92.98c1.95.02,3.89.14,5.82.37-1.9.25-3.79.62-5.64,1.08-1.08.22-1.28-1.4-.18-1.45h0Z"/>
            <path class="cls-11" d="m594.97,92.92c-1.66-.5-3.49-.37-5.22-.28.87-.31,1.74-.59,2.65-.8.95-.21,1.93-.43,2.92-.34.93.25.59,1.63-.35,1.42h0Z"/>
            <path class="cls-11" d="m554.06,89.76c-5.18,0-7.24-1.13-7.36-1.2-.28-.16-.38-.52-.22-.8.16-.28.52-.38.8-.22.06.03,4.48,2.37,16.88-.06.32-.06.63.14.69.46.06.32-.14.63-.46.69-4.33.85-7.73,1.13-10.33,1.13Z"/>
            <path class="cls-11" d="m585.81,89.21c-3.5,0-6.2-.54-6.41-.58-.32-.07-.52-.38-.46-.69.06-.32.38-.52.69-.46.09.02,9.35,1.86,15.76-1.36.29-.15.64-.03.79.26.15.29.03.64-.26.79-3.2,1.61-6.98,2.04-10.11,2.04Z"/>
          </g>
        </g>
        <g>
          <g>
            <path class="cls-2" d="m592.02,17.32h0c2.9,0,5.25,2.35,5.25,5.25v4.91c0,2.9-2.35,5.25-5.25,5.25h0c-.28,0-.5-.22-.5-.5v-14.4c0-.28.22-.5.5-.5Z" transform="translate(-.26 7.22) rotate(-.7)"/>
            <path class="cls-11" d="m592.07,32.9c-.33,0-.6-.27-.6-.6l-.18-14.48c0-.16.06-.31.17-.43.11-.12.26-.18.42-.18h.46c1.33-.02,2.58.48,3.53,1.41.95.93,1.48,2.17,1.5,3.5l.07,5.75c.03,2.74-2.17,5-4.91,5.03h-.46s0,0,0,0Zm.34-15.41s-.04,0-.06,0h-.46c-.08,0-.16.04-.22.1-.06.06-.09.14-.09.23l.18,14.48c0,.17.14.31.32.31h.46c2.58-.04,4.66-2.16,4.63-4.75l-.07-5.75c-.02-1.25-.52-2.42-1.41-3.3-.88-.86-2.04-1.33-3.27-1.33Z"/>
          </g>
          <path class="cls-9" d="m597.27,25.14l.03,2.3c.03,2.9-2.28,5.27-5.18,5.31-.28,0-.5-.22-.51-.49l-.05-3.83c.08.17.26.29.46.29h.34c2.29-.03,4.22-1.52,4.91-3.58Z"/>
          <path class="cls-11" d="m592.07,33.55c-.69,0-1.25-.55-1.26-1.24l-.18-14.48c0-.34.12-.65.36-.89.23-.24.55-.38.88-.38h.46c3.09-.04,5.65,2.45,5.69,5.55l.07,5.75c.04,3.1-2.45,5.65-5.56,5.69h-.46s-.01,0-.02,0Zm.16-15.41l.17,13.81h.12c2.22-.03,4.01-1.86,3.98-4.08l-.07-5.75c-.01-1.08-.44-2.08-1.22-2.84-.77-.75-1.79-1.16-2.86-1.15h-.12Z"/>
          <g>
            <path class="cls-2" d="m539.74,17.96h0c2.9,0,5.25,2.35,5.25,5.25v4.91c0,2.9-2.35,5.25-5.25,5.25h0c-.28,0-.5-.22-.5-.5v-14.4c0-.28.22-.5.5-.5Z" transform="translate(1084.49 44.73) rotate(179.3)"/>
            <path class="cls-11" d="m544.1,33.48c-1.3,0-2.53-.5-3.47-1.41-.95-.93-1.48-2.17-1.5-3.5l-.07-5.75c-.03-2.74,2.17-5,4.91-5.03h.46c.16,0,.31.05.43.17.12.11.18.26.18.42l.18,14.48c0,.16-.06.31-.17.43-.11.12-.26.18-.42.18h-.46s-.04,0-.06,0Zm-.13-15.4h0c-2.58.03-4.66,2.16-4.63,4.74l.07,5.75c.02,1.25.52,2.42,1.41,3.3.9.87,2.07,1.35,3.33,1.33h.46c.08,0,.16-.04.22-.1.06-.06.09-.14.09-.23l-.18-14.48c0-.08-.03-.16-.1-.22-.06-.06-.15-.1-.23-.09h-.46Z"/>
          </g>
          <path class="cls-9" d="m545.02,28.83l.05,4c0,.28-.22.5-.49.51-1.52.02-2.9-.61-3.87-1.64-.88-.92-1.42-2.17-1.44-3.55l-.03-2.07c.84,1.81,2.69,3.05,4.82,3.02h.53c.19,0,.35-.12.44-.27Z"/>
          <path class="cls-11" d="m544.1,34.13c-1.48,0-2.87-.57-3.93-1.6-1.08-1.05-1.68-2.45-1.7-3.96l-.07-5.75c-.04-3.1,2.45-5.65,5.56-5.69h.46c.7-.02,1.26.54,1.27,1.24l.18,14.48c0,.34-.12.65-.36.89-.23.24-.55.37-.88.38h-.46s-.05,0-.07,0Zm-.12-15.4h0c-2.22.03-4.01,1.86-3.98,4.08l.07,5.75c.01,1.08.44,2.08,1.22,2.84s1.79,1.15,2.86,1.15h.12s-.17-13.81-.17-13.81h-.12Z"/>
          <g>
            <circle class="cls-2" cx="568.25" cy="25.34" r="24.54"/>
            <path class="cls-11" d="m568.29,50.03c-.49,0-.99-.01-1.48-.04-6.58-.39-12.62-3.32-17-8.24-4.38-4.93-6.58-11.27-6.19-17.85.39-6.58,3.32-12.62,8.24-17,4.93-4.38,11.27-6.58,17.85-6.19,6.58.39,12.62,3.32,17,8.24,4.38,4.93,6.58,11.27,6.19,17.85-.39,6.58-3.32,12.62-8.24,17-4.56,4.05-10.32,6.24-16.37,6.24Zm-.06-49.09c-5.98,0-11.67,2.16-16.18,6.16-4.87,4.33-7.77,10.3-8.15,16.8-.38,6.51,1.79,12.77,6.12,17.64,4.33,4.87,10.3,7.77,16.8,8.15,6.51.38,12.77-1.79,17.64-6.12,4.87-4.33,7.77-10.3,8.15-16.8.38-6.51-1.79-12.77-6.12-17.64-4.33-4.87-10.3-7.77-16.8-8.15-.49-.03-.98-.04-1.47-.04Z"/>
          </g>
          <path class="cls-9" d="m592.72,23.38c.09,1.12.1,2.25.04,3.41-.8,13.53-12.41,23.85-25.94,23.06-13.53-.8-23.85-12.41-23.06-25.94.02-.39.05-.78.1-1.16.95,12.02,10.64,21.81,23.02,22.54,13.14.77,24.47-8.94,25.85-21.9Z"/>
          <path class="cls-11" d="m568.29,50.68c-.51,0-1.01-.01-1.52-.04-6.76-.4-12.95-3.4-17.45-8.46-4.5-5.06-6.75-11.57-6.36-18.32.4-6.76,3.4-12.95,8.46-17.45,5.06-4.5,11.57-6.75,18.32-6.36,6.76.4,12.95,3.4,17.45,8.46,4.5,5.06,6.75,11.57,6.36,18.32s-3.4,12.95-8.46,17.45c-4.68,4.16-10.59,6.4-16.8,6.4Zm-.05-49.09c-12.46,0-22.95,9.75-23.69,22.35-.77,13.07,9.24,24.33,22.31,25.1.47.03.94.04,1.41.04,12.46,0,22.95-9.75,23.69-22.35.37-6.33-1.74-12.43-5.96-17.17-4.21-4.74-10.02-7.56-16.35-7.93-.47-.03-.94-.04-1.41-.04Z"/>
          <path class="cls-11" d="m592.64,27.41c-.21,4.8-1.96,9.18-4.79,12.75-2.12,2.68-10.54,7.15-20.68,6.8-9.4-.33-17.74-5.71-19.61-8.56-2.5-3.8-3.87-8.32-3.66-13.12.56-12.7,11.69-17.48,25.15-16.89,13.46.59,24.14,6.33,23.58,19.03Z"/>
          <g class="cls-5">
            <ellipse class="cls-2" cx="584.79" cy="25.34" rx="4.34" ry="3.15" transform="translate(430.76 590.05) rotate(-77.22)"/>
          </g>
          <g class="cls-5">
            <ellipse class="cls-2" cx="580.57" cy="33.76" rx="1.99" ry="1.71" transform="translate(343.6 564.84) rotate(-69.28)"/>
          </g>
          <g class="cls-4">
            <path class="cls-3" d="m588.42,15.36c2.85,2.97,4.44,6.95,4.22,12.05-.21,4.8-1.96,9.19-4.79,12.75-2.12,2.68-10.54,7.15-20.68,6.8-3.58-.12-7.01-.98-9.98-2.16,12.47.17,22.73-5.33,25.36-8.65,3.59-4.53,5.81-10.1,6.08-16.19.07-1.63,0-3.16-.21-4.62Z"/>
          </g>
          <path class="cls-11" d="m591.03,16.77c-.14,0-.28-.05-.39-.15l-.06-.05-.05-.07c-3.88-5.98-11.73-9.66-21.53-10.09-9.85-.43-17.99,2.66-22.32,8.47l-.04.04-.87-.79.4.37-.44-.32c4.57-6.13,13.06-9.39,23.31-8.94,10.17.45,18.34,4.31,22.44,10.59.17.23.15.56-.06.76-.11.11-.26.17-.41.17Zm-44.82-2.24h0,0Z"/>
          <g class="cls-5">
            <path class="cls-2" d="m549.05,33.07s-3.38-12.7,3.58-17.39c6.97-4.7,16.68-4.25,16.43-3.64,0,0-10.87,2.13-15.44,10.45-3.53,6.41-4.57,10.58-4.57,10.58Z"/>
          </g>
        </g>
      </g>
    </g>
  </g>
</svg>